<svg xmlns="http://www.w3.org/2000/svg" viewBox="0 0 640 802">
  <path fill="#111112" d="M275.7,756.29l252.94-142.74c30.37-17.1,48.9-48.02,48.9-81.34v-32.43c0-34.82,19.37-66.98,51.06-84.88l50.96-28.8c30.37-17.1,48.9-48.02,48.9-81.34v-88.51l-126.47,71.41c-15.14,8.59-24.45,24.01-24.45,40.67v101.89c0,8.33-4.61,16.04-12.22,20.29l-265.17,149.65c-15.14,8.59-24.45,24.01-24.45,40.67v115.45h0Z"/>
  <path fill="#111112" d="M577.53,130.94l-428.22,241.71c-15.14,8.59-24.45,24.01-24.45,40.67v115.36l403.86-227.88c30.37-17.1,48.9-48.02,48.9-81.34v-88.51h-.09Z"/>
  <path fill="#111112" d="M275.7,245l-.38-87.12c0-16.75,9.22-32.25,24.45-40.85l126.38-71.32.28,60.1c.19,33.49-18.43,64.5-48.9,81.69l-101.74,57.41-.09.09h0Z"/>
</svg>
