<?xml version="1.0" encoding="UTF-8"?>
<svg id="Layer_1" xmlns="http://www.w3.org/2000/svg" version="1.1" viewBox="0 0 4183.88 802">
  <defs>
    <style>.st0 { fill: #fff; }</style>
  </defs>
  <g>
    <path class="st0" d="M2267.8,476.33l-93.29-218.39h-37.21l-117.72,283.13h42.52v-20.16l17.25-42.2,9.05-22.42h125.3l9.05,21.54,9.05,21.54v41.57h63.5l-27.64-64.74.17.12h0ZM2100.09,428.25l49.3-120.59h1.69l51.06,120.59h-102.05Z"/>
    <path class="st0" d="M4031.52,476.33l-93.29-218.39h-37.2l-114.04,274.36-3.68,8.89h42.52v-20.16l17.25-42.2,9.05-22.42h125.3l9.05,21.54,9.05,21.54v41.58h63.5l-27.64-64.74h.17-.02ZM3863.81,428.25l49.3-120.59h1.69l51.06,120.59h-102.05Z"/>
    <path class="st0" d="M2917.27,253.05c-87.69,0-149.49,62.36-149.49,146.64s61.8,146.26,149.49,146.26,149.49-61.99,149.49-146.26-61.01-146.64-149.49-146.64h0ZM2917.27,516.65c-61.4,0-102.85-47.21-102.85-116.95s41.44-117.71,102.85-117.71,102.45,48.08,102.45,117.71-41.04,116.95-102.45,116.95Z"/>
    <path class="st0" d="M1115.62,389.56l-42.8-18.28c-28.04-11.77-38-26.05-38-43.96,0-29.3,25.9-45.58,60.05-45.58,22.22,0,43.48,7.51,60.1,23.29v-35.94c0-2.51-1.64-4.88-4.02-5.76-15.83-6.14-35.34-10.27-56.32-10.27-59.26,0-101.26,36.32-101.26,81.52,0,31.43,18.6,57.48,59.65,75.01l41.84,17.53c27.65,11.77,40.14,23.67,40.14,43.57,0,30.18-28.55,46.45-61.01,46.45-6.51,0-13-.63-19.22-1.88-17.3-3.62-43.48-13.65-66.71-41.45v39.82c0,2,1.07,4,2.77,5.13,36.3,25.05,70.28,27.17,80.28,27.17h3.45c57.5,0,102.85-33.81,102.85-82.77,0-35.06-22.05-56.6-61.8-73.75v.12h-.02Z"/>
    <path class="st0" d="M3314.18,389.54l-42.8-18.28c-28.04-11.78-38-26.05-38-43.96,0-29.3,25.9-45.58,60.05-45.58,22.22,0,43.48,7.51,60.1,23.29v-35.94c0-2.51-1.64-4.88-4.02-5.76-15.83-6.14-35.34-10.27-56.32-10.27-59.31,0-101.15,36.32-101.15,81.52,0,31.43,18.6,57.48,59.65,75.01l42.01,17.53c27.64,11.77,40.14,23.67,40.14,43.57,0,30.18-28.61,46.46-61.01,46.46-6.5,0-13-.63-19.28-1.88-17.25-3.62-43.42-13.65-66.66-41.45v39.83c0,2,1.02,4,2.77,5.13,36.24,25.05,70.28,27.17,80.23,27.17h3.45c57.56,0,102.85-33.81,102.85-82.77,0-35.06-22.05-56.6-61.74-73.75l-.28.12-.02-.03h0Z"/>
    <path class="st0" d="M3619.39,389.56l-42.8-18.28c-28.04-11.77-38-26.05-38-43.96,0-29.3,25.9-45.58,60.05-45.58,22.22,0,43.48,7.51,60.05,23.29v-35.94c0-2.51-1.58-4.88-3.96-5.76-15.83-6.14-35.34-10.27-56.37-10.27-59.26,0-101.09,36.32-101.09,81.52,0,31.43,18.6,57.48,59.65,75.01l42.01,17.53c27.64,11.77,40.14,23.67,40.14,43.57,0,30.18-28.61,46.45-61.01,46.45-6.51,0-13-.63-19.28-1.88-17.25-3.62-43.42-13.65-66.71-41.45v39.82c0,2,1.07,4,2.83,5.13,36.24,25.05,70.28,27.17,80.23,27.17h3.45c57.56,0,102.85-33.81,102.85-82.77,0-35.06-22.05-56.6-61.8-73.75l-.23.12h-.02Z"/>
    <path class="st0" d="M2589.05,392.8l18.2,25.92v91.04c-3.56,1.25-7.18,2.38-10.74,3.38-12.78,3.51-25.39,5.13-38.67,5.25-59.54.25-109.07-40.07-116.42-95.8-10.46-79.26,38.05-140.88,122.52-140.88,15.55,0,29.91,2.38,42.92,6.76h.39v-26.05c0-3-2.27-5.76-5.43-6.26-12.61-2-26.07-3.13-40.82-3.13-98.55,0-167.64,63.11-167.64,148.76s63.89,144.25,157.29,144.25c17.7,0,34.15-2.51,49.58-6.51,4.24-1.13,8.37-2.38,12.5-3.76,2.27-.75,4.52-1.63,6.79-2.38,5.14-1.88,10.17-4,14.98-6.26.28,0,.39-.12.68-.25,0,0,.11-.12.28-.12,3.68-1.75,7.3-3.63,10.86-5.64,1.97-1.13,3.23-3.25,3.23-5.51v-122.72h-60.5v-.12.03h0Z"/>
    <path class="st0" d="M1527,476.33l-93.4-218.39h-37.21l-114.04,274.36-3.73,8.89h42.52v-20.16l17.3-42.2,9.05-22.42h125.3l9.05,21.54,8.99,21.54v41.58h63.56l-27.65-64.74h.28,0ZM1461.19,428.25h-102l13.4-32.93,36.69-89.78.9,2.13,15.44,36.57,35.56,84.15v-.12h0Z"/>
    <g>
      <polygon class="st0" points="1683.56 541.29 1683.56 541.17 1683.39 541.17 1683.56 541.29"/>
      <path class="st0" d="M1924.99,540.41l-120.55-136.86c47.61-8.14,75.2-35.81,75.2-71.75,0-43.96-38.9-73.75-104.94-73.75h-102.85l11.71,27.42v255.7h20.98v.05h27.76l-.03-.07h.03l-.06-.07-6.84-15.97v-117.55h31.1l111.61,131.35c1.18,1.51,3.17,2.38,5.2,2.38h52.36l-.68-.88h0ZM1725.4,379.76v-94.54h41.84c44.1,0,67.39,15.9,67.39,46.83,0,29.3-22.84,47.71-67.91,47.71h-41.33Z"/>
    </g>
  </g>
  <g>
    <path class="st0" d="M275.7,756.29l252.94-142.74c30.37-17.1,48.9-48.02,48.9-81.34v-32.43c0-34.82,19.37-66.98,51.06-84.88l50.96-28.8c30.37-17.1,48.9-48.02,48.9-81.34v-88.51l-126.47,71.41c-15.14,8.59-24.45,24.01-24.45,40.67v101.89c0,8.33-4.61,16.04-12.22,20.29l-265.17,149.65c-15.14,8.59-24.45,24.01-24.45,40.67v115.45h0Z"/>
    <path class="st0" d="M577.53,130.94l-428.22,241.71c-15.14,8.59-24.45,24.01-24.45,40.67v115.36l403.86-227.88c30.37-17.1,48.9-48.02,48.9-81.34v-88.51h-.09Z"/>
    <path class="st0" d="M275.7,245l-.38-87.12c0-16.75,9.22-32.25,24.45-40.85l126.38-71.32.28,60.1c.19,33.49-18.43,64.5-48.9,81.69l-101.74,57.41-.09.09h0Z"/>
  </g>
</svg>
